<?xml version="1.0" encoding="utf-8"?>
<!-- Generator: Adobe Illustrator 16.0.0, SVG Export Plug-In . SVG Version: 6.00 Build 0)  -->
<!DOCTYPE svg PUBLIC "-//W3C//DTD SVG 1.1//EN" "http://www.w3.org/Graphics/SVG/1.1/DTD/svg11.dtd">
<svg version="1.1" xmlns="http://www.w3.org/2000/svg" xmlns:xlink="http://www.w3.org/1999/xlink" x="0px" y="0px" width="800px"
	 height="800px" viewBox="0 0 800 800" enable-background="new 0 0 800 800" xml:space="preserve">
<g id="Background">
	<radialGradient id="SVGID_1_" cx="400" cy="400" r="559.472" gradientUnits="userSpaceOnUse">
		<stop  offset="0" style="stop-color:#FAAF3B"/>
		<stop  offset="0.3828" style="stop-color:#FAAB37"/>
		<stop  offset="0.7282" style="stop-color:#F8A02C"/>
		<stop  offset="1" style="stop-color:#F6921E"/>
	</radialGradient>
	<rect fill="url(#SVGID_1_)" width="800" height="800"/>
	<radialGradient id="SVGID_2_" cx="400" cy="400" r="563.46" gradientUnits="userSpaceOnUse">
		<stop  offset="0" style="stop-color:#FFFFFF;stop-opacity:0"/>
		<stop  offset="0.129" style="stop-color:#FBFBFB;stop-opacity:0.0387"/>
		<stop  offset="0.2617" style="stop-color:#EFEFEF;stop-opacity:0.0785"/>
		<stop  offset="0.3961" style="stop-color:#DADADA;stop-opacity:0.1188"/>
		<stop  offset="0.5317" style="stop-color:#BDBEBD;stop-opacity:0.1595"/>
		<stop  offset="0.6683" style="stop-color:#989998;stop-opacity:0.2005"/>
		<stop  offset="0.8057" style="stop-color:#6B6C6A;stop-opacity:0.2417"/>
		<stop  offset="0.9413" style="stop-color:#363735;stop-opacity:0.2824"/>
		<stop  offset="1" style="stop-color:#1D1E1C;stop-opacity:0.3"/>
	</radialGradient>
	<rect fill="url(#SVGID_2_)" width="800" height="800"/>
</g>
<g id="Objects">
	<g>
		<path fill="#F1F1F1" d="M662.56,711.902c-5.576,0-10.729,1.797-14.923,4.836c-0.957-19.938-17.423-35.808-37.597-35.808
			c-6.389,0-12.402,1.596-17.672,4.404c2.426-6.221,3.773-12.982,3.773-20.062c0-30.505-24.729-55.233-55.232-55.233
			c-18.31,0-34.527,8.916-44.575,22.637l-34.695-209.162l24.109,219.381c-1.988-2.057-4.198-3.897-6.597-5.477l-28.713-200.139
			l16.419,194.816c-2.906-0.693-5.938-1.064-9.057-1.064c-6.901,0-13.38,1.806-18.999,4.96
			c-2.404-10.993-10.281-19.936-20.63-23.835l-7.517-137.711l1.25,136.035c-1.75-0.286-3.543-0.441-5.375-0.441
			c-1.159,0-2.298,0.08-3.427,0.196L400,469.627l-3.132,141.884c-0.436,0.134-0.881,0.25-1.311,0.401
			c-10.91-17.339-28.826-29.819-49.779-33.464l12.067-141.169l-22.455,140.104c-0.776-0.024-1.556-0.038-2.339-0.038
			c-1.498,0-2.981,0.062-4.458,0.148l18.053-153.98L317.57,578.99c-29.801,6.364-52.942,30.697-57.509,61.125
			c-1.184-0.082-2.374-0.139-3.578-0.139c-24.839,0-45.514,17.786-50.013,41.313c-7.477,1.268-13.904,5.823-17.903,12.214
			c-6.921-4.847-15.737-7.756-25.344-7.756c-22.237,0-40.264,15.562-40.264,34.758c0,19.195,18.026,34.757,40.264,34.757
			c3.191,0,6.293-0.33,9.271-0.937c22.61,15.448,122.641,27.091,242.634,27.091c108.102,0,199.996-9.45,233.682-22.619
			c3.968,2.551,8.683,4.035,13.749,4.035c14.064,0,25.465-11.4,25.465-25.465S676.624,711.902,662.56,711.902z M299.697,717.856
			c0.133-0.214,0.273-0.425,0.404-0.643c0.355,0.178,0.704,0.366,1.063,0.538C300.674,717.786,300.186,717.821,299.697,717.856z"/>
		<g>
			<path fill="#4D4D4D" d="M450.581,291.398c-0.818,20.937-13.251,69.139-13.251,69.139c22.989-16.976,24.062,23.905,24.062,23.905
				C498.982,265.82,450.581,291.398,450.581,291.398z"/>
			<path fill="#4D4D4D" d="M346.772,384.442c0,0,1.072-40.881,24.062-23.905c0,0-12.434-48.202-13.251-69.139
				C357.584,291.398,309.182,265.82,346.772,384.442z"/>
			<path fill="#4D4D4D" d="M429.382,144.976h0.016c0,0-0.021-0.035-0.027-0.046c0.014-0.054,0.025-0.108,0.025-0.163
				c0-0.32-0.232-0.632-0.657-0.931c-3.889-6.858-23.752-43.978-24.664-87.434c1.677-0.026,3.029-1.389,3.029-3.072
				c0-1.7-1.378-3.077-3.077-3.077s-3.077,1.377-3.077,3.077c0,1.684,1.353,3.046,3.029,3.072
				c-0.911,43.38-20.704,80.442-24.641,87.393c-0.464,0.312-0.716,0.637-0.716,0.972c0,0.07,0.012,0.14,0.033,0.209
				c-2.128,2.172-20.836,23.023-20.81,84.51c0.029,65.192,17.512,128.838,17.512,128.838l28.747-0.013l28.746-0.013
				c0,0,17.425-63.662,17.396-128.853C450.218,168.144,431.605,147.252,429.382,144.976z M404.02,172.486
				c8.263-0.003,14.96,6.691,14.964,14.952c0.004,8.264-6.688,14.963-14.949,14.967c-8.259,0.002-14.959-6.69-14.964-14.954
				C389.066,179.191,395.759,172.491,404.02,172.486z M404.045,225.802c8.263-0.004,14.959,6.69,14.962,14.953
				c0.007,8.26-6.689,14.962-14.948,14.964c-8.262,0.006-14.959-6.689-14.964-14.953
				C389.092,232.506,395.782,225.808,404.045,225.802z M404.082,309.037c-8.261,0.004-14.958-6.689-14.964-14.953
				c-0.003-8.261,6.689-14.96,14.949-14.963c8.263-0.004,14.961,6.688,14.964,14.951
				C419.033,302.335,412.343,309.033,404.082,309.037z"/>
			<path fill="#4D4D4D" d="M420.916,366.751c0.002,0.002,4.187,11.428-1.283,22.853c0,0,0.723-3.281-1.296-4.886
				c-0.344-0.274-0.768-0.502-1.293-0.651c-3.578-1.038,0.235,14.19-12.91,28.387c-13.16-14.185-9.36-29.416-12.938-28.377
				c-0.524,0.153-0.948,0.378-1.295,0.654c-2.015,1.605-1.288,4.887-1.288,4.887c-5.479-11.413-1.309-22.839-1.303-22.853
				l-8.118,0.004c0,0-6.192,16.955,1.933,33.89c0,0-1.078-4.867,1.913-7.248c0.508-0.407,1.142-0.744,1.918-0.969
				c5.31-1.54-0.328,21.046,19.188,42.085c19.498-21.056,13.842-43.64,19.151-42.101c0.777,0.223,1.408,0.558,1.92,0.964
				c2.992,2.379,1.917,7.249,1.917,7.249c8.108-16.944,1.906-33.893,1.906-33.893L420.916,366.751z"/>
		</g>
		<path fill="#E5E5E5" d="M70.679,800h653.812c3.109-4.678,4.83-9.816,4.83-15.211c0-21.666-27.732-39.23-61.943-39.23
			c-5.742,0-11.295,0.505-16.573,1.431c-3.842-21.518-22.378-37.841-44.682-37.841c-2.771,0-5.479,0.266-8.114,0.747
			c-10.042-21.494-33.133-36.538-60.026-36.538c-22.864,0-42.977,10.881-54.663,27.348c-5.695-3.79-12.587-6.011-20.013-6.011
			c-14.604,0-27.143,8.578-32.57,20.826c-17.803-18.912-44.546-30.943-74.455-30.943c-37.253,0-69.598,18.664-85.863,46.044
			c-6.177-4.018-13.418-6.331-21.162-6.331c-11.726,0-22.292,5.309-29.757,13.804c-13.881-13.809-36.611-22.82-62.318-22.82
			c-42.273,0-76.544,24.345-76.544,54.374c0,6.528,1.623,12.785,4.592,18.584C78.55,791.703,73.551,795.687,70.679,800z"/>
	</g>
</g>
</svg>
